<svg width="157.5" height="31.75" viewBox="0 0 630 127" fill="none" xmlns="http://www.w3.org/2000/svg">
<path d="M441.7 38.2H421.7V25.4H475.2V38.2H455.2V97H441.7V38.2ZM492.27 98.6C486.87 98.6 482.436 97.0333 478.97 93.9C475.503 90.7 473.77 86.5333 473.77 81.4C473.77 78 474.67 75 476.47 72.4C478.27 69.8 480.736 67.8 483.87 66.4C487.003 65 490.47 64.3 494.27 64.3C499.536 64.3 504.036 65.0667 507.77 66.6V64.4C507.77 61.6 506.703 59.3333 504.57 57.6C502.503 55.8667 499.703 55 496.17 55C493.77 55 491.436 55.5667 489.17 56.7C486.97 57.7667 485.136 59.2 483.67 61L475.27 54.4C477.736 51.2 480.836 48.7333 484.57 47C488.303 45.2667 492.37 44.4 496.77 44.4C504.57 44.4 510.503 46.2 514.57 49.8C518.636 53.4 520.67 58.6667 520.67 65.6V97H507.77V91.8H506.97C505.436 93.8 503.403 95.4333 500.87 96.7C498.403 97.9667 495.536 98.6 492.27 98.6ZM495.37 88.4C499.17 88.4 502.17 87.2 504.37 84.8C506.636 82.3333 507.77 79.4667 507.77 76.2C504.37 74.6 500.803 73.8 497.07 73.8C490.27 73.8 486.87 76.3333 486.87 81.4C486.87 83.4667 487.603 85.1667 489.07 86.5C490.536 87.7667 492.636 88.4 495.37 88.4ZM540.124 40.4C537.791 40.4 535.791 39.5667 534.124 37.9C532.458 36.2333 531.624 34.2333 531.624 31.9C531.624 29.5667 532.458 27.6 534.124 26C535.791 24.3333 537.791 23.5 540.124 23.5C542.458 23.5 544.424 24.3333 546.024 26C547.691 27.6 548.524 29.5667 548.524 31.9C548.524 34.2333 547.691 36.2333 546.024 37.9C544.424 39.5667 542.458 40.4 540.124 40.4ZM533.524 46H546.624V97H533.524V46ZM560.361 25.4H573.461V97H560.361V25.4ZM605.249 98.6C599.049 98.6 594.016 97.3333 590.149 94.8C586.349 92.2667 583.683 88.9667 582.149 84.9L593.849 79.8C594.916 82.2 596.416 84.0333 598.349 85.3C600.349 86.5 602.649 87.1 605.249 87.1C607.649 87.1 609.649 86.7333 611.249 86C612.849 85.2 613.649 83.9333 613.649 82.2C613.649 80.5333 612.916 79.3 611.449 78.5C609.983 77.6333 607.783 76.8667 604.849 76.2L598.849 74.9C594.716 73.9 591.283 72.1 588.549 69.5C585.816 66.8333 584.449 63.5333 584.449 59.6C584.449 56.6667 585.316 54.0333 587.049 51.7C588.849 49.3667 591.249 47.5667 594.249 46.3C597.316 45.0333 600.683 44.4 604.349 44.4C614.883 44.4 621.916 48.1 625.449 55.5L614.249 60.4C612.249 56.8 609.049 55 604.649 55C602.383 55 600.583 55.4333 599.249 56.3C597.916 57.1 597.249 58.1333 597.249 59.4C597.249 61.8 599.516 63.6 604.049 64.8L611.549 66.6C616.616 67.8667 620.416 69.8 622.949 72.4C625.549 75 626.849 78.2 626.849 82C626.849 85.2667 625.883 88.1667 623.949 90.7C622.083 93.1667 619.483 95.1 616.149 96.5C612.883 97.9 609.249 98.6 605.249 98.6Z" fill="#FFBC11"/>
<path d="M110.2 25.4H123.7V54H153.8V25.4H167.3V97H153.8V66.8H123.7V97H110.2V25.4ZM196.07 98.6C190.67 98.6 186.237 97.0333 182.77 93.9C179.304 90.7 177.57 86.5333 177.57 81.4C177.57 78 178.47 75 180.27 72.4C182.07 69.8 184.537 67.8 187.67 66.4C190.804 65 194.27 64.3 198.07 64.3C203.337 64.3 207.837 65.0667 211.57 66.6V64.4C211.57 61.6 210.504 59.3333 208.37 57.6C206.304 55.8667 203.504 55 199.97 55C197.57 55 195.237 55.5667 192.97 56.7C190.77 57.7667 188.937 59.2 187.47 61L179.07 54.4C181.537 51.2 184.637 48.7333 188.37 47C192.104 45.2667 196.17 44.4 200.57 44.4C208.37 44.4 214.304 46.2 218.37 49.8C222.437 53.4 224.47 58.6667 224.47 65.6V97H211.57V91.8H210.77C209.237 93.8 207.204 95.4333 204.67 96.7C202.204 97.9667 199.337 98.6 196.07 98.6ZM199.17 88.4C202.97 88.4 205.97 87.2 208.17 84.8C210.437 82.3333 211.57 79.4667 211.57 76.2C208.17 74.6 204.604 73.8 200.87 73.8C194.07 73.8 190.67 76.3333 190.67 81.4C190.67 83.4667 191.404 85.1667 192.87 86.5C194.337 87.7667 196.437 88.4 199.17 88.4ZM236.125 46H248.425V52.2H249.225C250.625 50 252.658 48.1667 255.325 46.7C257.992 45.1667 261.058 44.4 264.525 44.4C269.125 44.4 273.292 45.5667 277.025 47.9C280.825 50.1667 283.792 53.3667 285.925 57.5C288.058 61.6333 289.125 66.3 289.125 71.5C289.125 76.7667 288.058 81.4667 285.925 85.6C283.792 89.6667 280.825 92.8667 277.025 95.2C273.292 97.4667 269.125 98.6 264.525 98.6C261.058 98.6 257.958 97.8667 255.225 96.4C252.558 94.9333 250.558 93.1 249.225 90.9H248.425L249.225 98.1V118.6H236.125V46ZM262.225 86.5C264.692 86.5 266.992 85.8667 269.125 84.6C271.258 83.3333 272.958 81.5667 274.225 79.3C275.492 77.0333 276.125 74.4333 276.125 71.5C276.125 68.5667 275.492 65.9667 274.225 63.7C272.958 61.4333 271.258 59.7 269.125 58.5C266.992 57.2333 264.692 56.6 262.225 56.6C259.825 56.6 257.558 57.2333 255.425 58.5C253.292 59.7 251.592 61.4333 250.325 63.7C249.058 65.9667 248.425 68.5667 248.425 71.5C248.425 74.4333 249.058 77.0333 250.325 79.3C251.592 81.5667 253.292 83.3333 255.425 84.6C257.558 85.8667 259.825 86.5 262.225 86.5ZM297.844 46H310.144V52.2H310.944C312.344 50 314.377 48.1667 317.044 46.7C319.71 45.1667 322.777 44.4 326.244 44.4C330.844 44.4 335.01 45.5667 338.744 47.9C342.544 50.1667 345.51 53.3667 347.644 57.5C349.777 61.6333 350.844 66.3 350.844 71.5C350.844 76.7667 349.777 81.4667 347.644 85.6C345.51 89.6667 342.544 92.8667 338.744 95.2C335.01 97.4667 330.844 98.6 326.244 98.6C322.777 98.6 319.677 97.8667 316.944 96.4C314.277 94.9333 312.277 93.1 310.944 90.9H310.144L310.944 98.1V118.6H297.844V46ZM323.944 86.5C326.41 86.5 328.71 85.8667 330.844 84.6C332.977 83.3333 334.677 81.5667 335.944 79.3C337.21 77.0333 337.844 74.4333 337.844 71.5C337.844 68.5667 337.21 65.9667 335.944 63.7C334.677 61.4333 332.977 59.7 330.844 58.5C328.71 57.2333 326.41 56.6 323.944 56.6C321.544 56.6 319.277 57.2333 317.144 58.5C315.01 59.7 313.31 61.4333 312.044 63.7C310.777 65.9667 310.144 68.5667 310.144 71.5C310.144 74.4333 310.777 77.0333 312.044 79.3C313.31 81.5667 315.01 83.3333 317.144 84.6C319.277 85.8667 321.544 86.5 323.944 86.5ZM374.886 94.6L353.386 46H368.286L381.486 77.7H382.286L394.986 46H409.586L378.086 118.6H363.986L374.886 94.6Z" fill="black"/>
<path d="M55.2601 63.298C48.5461 61.624 41.4541 61.624 34.7581 63.298C30.6181 64.342 27.7201 68.032 27.7201 72.298C27.7201 75.178 29.0161 77.842 31.2841 79.606C33.5521 81.388 36.4501 82 39.2401 81.298L43.5961 80.218C44.5141 79.984 45.4861 79.984 46.4041 80.218L50.7421 81.298C51.4981 81.478 52.2541 81.586 53.0101 81.586C55.0621 81.586 57.0421 80.902 58.6981 79.606C60.9661 77.842 62.2621 75.16 62.2621 72.298C62.2801 68.032 59.4001 64.342 55.2601 63.298ZM56.5741 76.87C55.1521 77.968 53.3521 78.364 51.6061 77.932L47.2681 76.852C45.7921 76.474 44.2261 76.474 42.7681 76.852L38.4301 77.932C36.6841 78.364 34.8661 77.986 33.4621 76.87C32.0401 75.772 31.2301 74.098 31.2301 72.298C31.2301 69.634 33.0301 67.33 35.6221 66.682C41.7781 65.152 48.2941 65.152 54.4501 66.682C57.0421 67.33 58.8421 69.634 58.8421 72.298C58.8061 74.098 57.9781 75.772 56.5741 76.87ZM35.0821 55.738C35.0821 52.102 32.1301 49.132 28.4761 49.132C24.8221 49.132 21.8701 52.084 21.8701 55.738C21.8701 59.392 24.8221 62.344 28.4761 62.344C32.1301 62.344 35.0821 59.374 35.0821 55.738ZM25.3621 55.738C25.3621 54.028 26.7661 52.624 28.4761 52.624C30.1861 52.624 31.5901 54.028 31.5901 55.738C31.5901 57.448 30.1861 58.852 28.4761 58.852C26.7661 58.852 25.3621 57.448 25.3621 55.738ZM61.5241 49.132C57.8881 49.132 54.9181 52.084 54.9181 55.738C54.9181 59.392 57.8881 62.344 61.5241 62.344C65.1601 62.344 68.1301 59.392 68.1301 55.738C68.1301 52.084 65.1601 49.132 61.5241 49.132ZM61.5241 58.852C59.8141 58.852 58.4101 57.448 58.4101 55.738C58.4101 54.028 59.8141 52.624 61.5241 52.624C63.2341 52.624 64.6381 54.028 64.6381 55.738C64.6381 57.448 63.2341 58.852 61.5241 58.852ZM45.0001 58.456C49.1761 58.456 52.5781 55.054 52.5781 50.878C52.5781 46.702 49.1761 43.3 45.0001 43.3C40.8241 43.3 37.4221 46.702 37.4221 50.878C37.4221 55.054 40.8241 58.456 45.0001 58.456ZM45.0001 46.792C47.2501 46.792 49.0861 48.628 49.0861 50.878C49.0861 53.128 47.2501 54.964 45.0001 54.964C42.7501 54.964 40.9141 53.128 40.9141 50.878C40.9141 48.628 42.7501 46.792 45.0001 46.792Z" fill="black"/>
<path d="M75.8702 30.313L46.5302 21.043C45.5042 20.719 44.4062 20.719 43.3802 21.043L14.0222 30.313C11.4482 31.123 9.72021 33.481 9.72021 36.181V62.461C9.72021 77.275 17.2262 90.811 29.7902 98.677L42.1742 106.417C43.0202 106.939 43.9742 107.209 44.9462 107.209C45.9182 107.209 46.8722 106.939 47.7182 106.417L60.1022 98.677C72.6662 90.811 80.1722 77.275 80.1722 62.443V36.163C80.1722 33.481 78.4442 31.123 75.8702 30.313ZM76.6802 62.443C76.6802 76.051 69.7862 88.489 58.2482 95.689L45.8642 103.429C45.3062 103.789 44.5682 103.771 44.0102 103.429L31.6262 95.689C20.1062 88.489 13.2122 76.051 13.2122 62.443V36.163C13.2122 34.993 13.9682 33.967 15.0662 33.625L44.4242 24.355C44.5862 24.301 44.7662 24.265 44.9462 24.265C45.1262 24.265 45.3062 24.283 45.4682 24.355L74.8262 33.625C75.9422 33.985 76.6802 34.993 76.6802 36.163V62.443Z" fill="black"/>
</svg>
